<svg xmlns="http://www.w3.org/2000/svg" width="344" height="345" viewBox="0 0 344 345">
  <g fill="none" fill-rule="evenodd">
    <path fill="#F96E2B" d="M73.013407,2.6866064 C106.18824,0.895535467 139.183771,-3.78753344e-15 172,0 C204.832174,0 237.664282,0.896405919 270.496323,2.68921776 L270.496323,2.68921771 C308.699378,4.77531668 339.208201,35.2833237 341.295323,73.4863222 C343.098441,106.490881 344,139.495441 344,172.5 C344,205.511425 343.098066,238.52285 341.294197,271.534276 L341.294197,271.534275 C339.20649,309.740047 308.693155,340.248892 270.487077,342.330977 C237.836179,344.110326 205.007154,345 172,345 C139.007428,345 106.01479,344.111111 73.0220864,342.333334 L73.0220864,342.333335 C34.4742283,340.256224 3.79947595,309.257162 2.12787429,270.689591 C0.709291429,237.959727 1.89395185e-15,205.229864 0,172.5 C0,139.776865 0.708999838,107.053729 2.12699951,74.3305938 L2.12699924,74.3305938 C3.79813889,35.7657548 34.4685114,4.76760084 73.013407,2.6866064 Z"/>
    <g fill="#622A0F" fill-rule="nonzero" transform="translate(64 89)">
      <path d="M58.4590945,0.184540368 L202.027006,0.184540368 C209.722002,0.184540368 216,6.42896884 216,14.0750789 L216,30.4848561 C216,38.13728 209.722002,44.3753946 202.027006,44.3753946 L58.4590945,44.3753946 C50.75139,44.3753946 44.4733916,38.13728 44.4733916,30.4848561 L44.4733916,14.0813928 C44.4670373,6.42896884 50.75139,0.184540368 58.4590945,0.184540368 L58.4590945,0.184540368 Z M58.4590945,133.81546 L202.027006,133.81546 C209.722002,133.81546 216,140.053574 216,147.705998 L216,164.109461 C216,171.761885 209.722002,178 202.027006,178 L58.4590945,178 C50.75139,178 44.4733916,171.761885 44.4733916,164.109461 L44.4733916,147.705998 C44.4670373,140.053574 50.75139,133.81546 58.4590945,133.81546 L58.4590945,133.81546 Z M58.4590945,67.0094708 L202.027006,67.0094708 C209.722002,67.0094708 216,73.2475854 216,80.8936955 L216,97.3097865 C216,104.96221 209.722002,111.200325 202.027006,111.200325 L58.4590945,111.200325 C50.75139,111.200325 44.4733916,104.96221 44.4733916,97.3097865 L44.4733916,80.8936955 C44.4670373,73.2412715 50.75139,67.0094708 58.4590945,67.0094708 L58.4590945,67.0094708 Z"/>
      <path d="M0,151.488013 C0,109.109243 0,46.7304723 0,4.35170193 C0,2.05976307 1.88721207,0.184540368 4.19380461,0.184540368 L14.8689436,0.184540368 C17.1755361,0.184540368 19.0627482,2.05976307 19.0627482,4.35170193 L19.0627482,12.8123027 L27.5774424,12.8123027 C29.8840349,12.8123027 31.7585385,14.6812115 31.7585385,16.9794643 L31.7585385,27.5804707 C31.7585385,29.8724096 29.8840349,31.7539462 27.5774424,31.7539462 L19.0627482,31.7539462 L19.0627482,79.6246054 L27.5774424,79.6246054 C29.8840349,79.6246054 31.7585385,81.4935142 31.7585385,83.7917669 L31.7585385,94.3927734 C31.7585385,96.6910262 29.8840349,98.559935 27.5774424,98.559935 L19.0627482,98.559935 L19.0627482,146.436908 L27.5774424,146.436908 C29.8840349,146.436908 31.7585385,148.305817 31.7585385,150.597756 L31.7585385,161.205076 C31.7585385,163.497015 29.8840349,165.365924 27.5774424,165.365924 L13.9793487,165.365924 C6.28435266,165.378552 0,159.134123 0,151.488013 Z" opacity=".5"/>
    </g>
  </g>
</svg>
